<mxfile host="app.diagrams.net" modified="2020-12-18T12:01:27.854Z" agent="5.0 (Windows NT 10.0; Win64; x64) AppleWebKit/537.36 (KHTML, like Gecko) Chrome/87.0.4280.88 Safari/537.36" etag="k0u_flUoVBYtD9sJCFue" version="14.0.5" type="github">
  <diagram id="FNxnlOzfKIohwvnPxVwy" name="Page-1">
    <mxGraphModel dx="1038" dy="1680" grid="1" gridSize="10" guides="1" tooltips="1" connect="1" arrows="1" fold="1" page="1" pageScale="1" pageWidth="850" pageHeight="1100" math="0" shadow="0">
      <root>
        <mxCell id="0" />
        <mxCell id="1" parent="0" />
        <mxCell id="gqDIxeXrWdBPDwV7vT4_-8" style="edgeStyle=orthogonalEdgeStyle;rounded=0;orthogonalLoop=1;jettySize=auto;html=1;exitX=0.75;exitY=1;exitDx=0;exitDy=0;entryX=0.75;entryY=0;entryDx=0;entryDy=0;" edge="1" parent="1" source="gqDIxeXrWdBPDwV7vT4_-2" target="gqDIxeXrWdBPDwV7vT4_-3">
          <mxGeometry relative="1" as="geometry" />
        </mxCell>
        <mxCell id="gqDIxeXrWdBPDwV7vT4_-2" value="&lt;b&gt;rozrachunki&lt;/b&gt;&lt;br&gt;atrybuty:&lt;br&gt;&lt;span class=&quot;TextRun SCXW259870011 BCX0&quot; lang=&quot;EN-GB&quot; style=&quot;margin: 0px ; padding: 0px ; font-size: 9pt ; text-align: left ; background-color: rgb(255 , 255 , 255) ; font-family: &amp;#34;segoe ui&amp;#34; , &amp;#34;segoe ui_embeddedfont&amp;#34; , &amp;#34;segoe ui_msfontservice&amp;#34; , sans-serif ; line-height: 24px&quot;&gt;&lt;span class=&quot;NormalTextRun SCXW259870011 BCX0&quot; style=&quot;margin: 0px ; padding: 0px ; background-color: inherit&quot;&gt;nr&amp;nbsp;&lt;/span&gt;&lt;/span&gt;&lt;span class=&quot;TextRun SCXW259870011 BCX0&quot; lang=&quot;EN-GB&quot; style=&quot;margin: 0px ; padding: 0px ; font-size: 9pt ; text-align: left ; background-color: rgb(255 , 255 , 255) ; font-family: &amp;#34;segoe ui&amp;#34; , &amp;#34;segoe ui_embeddedfont&amp;#34; , &amp;#34;segoe ui_msfontservice&amp;#34; , sans-serif ; line-height: 24px&quot;&gt;&lt;span class=&quot;SpellingError SCXW259870011 BCX0&quot; style=&quot;margin: 0px ; padding: 0px ; background-repeat: repeat-x ; background-position: left bottom ; background-image: url(&amp;#34;data:image/gif;base64,R0lGODlhBQAEAJECAP////8AAAAAAAAAACH5BAEAAAIALAAAAAAFAAQAAAIIlGAXCCHrTCgAOw==&amp;#34;) ; border-bottom: 1px solid transparent ; background-color: inherit&quot;&gt;dokumentu&lt;/span&gt;&lt;/span&gt;&lt;span class=&quot;TextRun SCXW259870011 BCX0&quot; lang=&quot;EN-GB&quot; style=&quot;margin: 0px ; padding: 0px ; font-size: 9pt ; text-align: left ; background-color: rgb(255 , 255 , 255) ; font-family: &amp;#34;segoe ui&amp;#34; , &amp;#34;segoe ui_embeddedfont&amp;#34; , &amp;#34;segoe ui_msfontservice&amp;#34; , sans-serif ; line-height: 24px&quot;&gt;&lt;span class=&quot;NormalTextRun SCXW259870011 BCX0&quot; style=&quot;margin: 0px ; padding: 0px ; background-color: inherit&quot;&gt;,&amp;nbsp;&lt;br&gt;&lt;/span&gt;&lt;/span&gt;&lt;span class=&quot;TextRun SCXW259870011 BCX0&quot; lang=&quot;EN-GB&quot; style=&quot;margin: 0px ; padding: 0px ; font-size: 9pt ; text-align: left ; background-color: rgb(255 , 255 , 255) ; font-family: &amp;#34;segoe ui&amp;#34; , &amp;#34;segoe ui_embeddedfont&amp;#34; , &amp;#34;segoe ui_msfontservice&amp;#34; , sans-serif ; line-height: 24px&quot;&gt;&lt;span class=&quot;SpellingError SCXW259870011 BCX0&quot; style=&quot;margin: 0px ; padding: 0px ; background-repeat: repeat-x ; background-position: left bottom ; background-image: url(&amp;#34;data:image/gif;base64,R0lGODlhBQAEAJECAP////8AAAAAAAAAACH5BAEAAAIALAAAAAAFAAQAAAIIlGAXCCHrTCgAOw==&amp;#34;) ; border-bottom: 1px solid transparent ; background-color: inherit&quot;&gt;datę&lt;/span&gt;&lt;/span&gt;&lt;span class=&quot;TextRun SCXW259870011 BCX0&quot; lang=&quot;EN-GB&quot; style=&quot;margin: 0px ; padding: 0px ; font-size: 9pt ; text-align: left ; background-color: rgb(255 , 255 , 255) ; font-family: &amp;#34;segoe ui&amp;#34; , &amp;#34;segoe ui_embeddedfont&amp;#34; , &amp;#34;segoe ui_msfontservice&amp;#34; , sans-serif ; line-height: 24px&quot;&gt;&lt;span class=&quot;NormalTextRun SCXW259870011 BCX0&quot; style=&quot;margin: 0px ; padding: 0px ; background-color: inherit&quot;&gt;&amp;nbsp;&lt;/span&gt;&lt;/span&gt;&lt;span class=&quot;TextRun SCXW259870011 BCX0&quot; lang=&quot;EN-GB&quot; style=&quot;margin: 0px ; padding: 0px ; font-size: 9pt ; text-align: left ; background-color: rgb(255 , 255 , 255) ; font-family: &amp;#34;segoe ui&amp;#34; , &amp;#34;segoe ui_embeddedfont&amp;#34; , &amp;#34;segoe ui_msfontservice&amp;#34; , sans-serif ; line-height: 24px&quot;&gt;&lt;span class=&quot;SpellingError SCXW259870011 BCX0&quot; style=&quot;margin: 0px ; padding: 0px ; background-repeat: repeat-x ; background-position: left bottom ; background-image: url(&amp;#34;data:image/gif;base64,R0lGODlhBQAEAJECAP////8AAAAAAAAAACH5BAEAAAIALAAAAAAFAAQAAAIIlGAXCCHrTCgAOw==&amp;#34;) ; border-bottom: 1px solid transparent ; background-color: inherit&quot;&gt;operacji&lt;/span&gt;&lt;/span&gt;&lt;span class=&quot;TextRun SCXW259870011 BCX0&quot; lang=&quot;EN-GB&quot; style=&quot;margin: 0px ; padding: 0px ; font-size: 9pt ; text-align: left ; background-color: rgb(255 , 255 , 255) ; font-family: &amp;#34;segoe ui&amp;#34; , &amp;#34;segoe ui_embeddedfont&amp;#34; , &amp;#34;segoe ui_msfontservice&amp;#34; , sans-serif ; line-height: 24px&quot;&gt;&lt;span class=&quot;NormalTextRun SCXW259870011 BCX0&quot; style=&quot;margin: 0px ; padding: 0px ; background-color: inherit&quot;&gt;,&amp;nbsp;&lt;br&gt;&lt;/span&gt;&lt;/span&gt;&lt;span class=&quot;TextRun SCXW259870011 BCX0&quot; lang=&quot;EN-GB&quot; style=&quot;margin: 0px ; padding: 0px ; font-size: 9pt ; text-align: left ; background-color: rgb(255 , 255 , 255) ; font-family: &amp;#34;segoe ui&amp;#34; , &amp;#34;segoe ui_embeddedfont&amp;#34; , &amp;#34;segoe ui_msfontservice&amp;#34; , sans-serif ; line-height: 24px&quot;&gt;&lt;span class=&quot;SpellingError SCXW259870011 BCX0&quot; style=&quot;margin: 0px ; padding: 0px ; background-repeat: repeat-x ; background-position: left bottom ; background-image: url(&amp;#34;data:image/gif;base64,R0lGODlhBQAEAJECAP////8AAAAAAAAAACH5BAEAAAIALAAAAAAFAAQAAAIIlGAXCCHrTCgAOw==&amp;#34;) ; border-bottom: 1px solid transparent ; background-color: inherit&quot;&gt;opis&lt;/span&gt;&lt;/span&gt;&lt;span class=&quot;TextRun SCXW259870011 BCX0&quot; lang=&quot;EN-GB&quot; style=&quot;margin: 0px ; padding: 0px ; font-size: 9pt ; text-align: left ; background-color: rgb(255 , 255 , 255) ; font-family: &amp;#34;segoe ui&amp;#34; , &amp;#34;segoe ui_embeddedfont&amp;#34; , &amp;#34;segoe ui_msfontservice&amp;#34; , sans-serif ; line-height: 24px&quot;&gt;&lt;span class=&quot;NormalTextRun SCXW259870011 BCX0&quot; style=&quot;margin: 0px ; padding: 0px ; background-color: inherit&quot;&gt;&amp;nbsp;&lt;/span&gt;&lt;/span&gt;&lt;span class=&quot;TextRun SCXW259870011 BCX0&quot; lang=&quot;EN-GB&quot; style=&quot;margin: 0px ; padding: 0px ; font-size: 9pt ; text-align: left ; background-color: rgb(255 , 255 , 255) ; font-family: &amp;#34;segoe ui&amp;#34; , &amp;#34;segoe ui_embeddedfont&amp;#34; , &amp;#34;segoe ui_msfontservice&amp;#34; , sans-serif ; line-height: 24px&quot;&gt;&lt;span class=&quot;SpellingError SCXW259870011 BCX0&quot; style=&quot;margin: 0px ; padding: 0px ; background-repeat: repeat-x ; background-position: left bottom ; background-image: url(&amp;#34;data:image/gif;base64,R0lGODlhBQAEAJECAP////8AAAAAAAAAACH5BAEAAAIALAAAAAAFAAQAAAIIlGAXCCHrTCgAOw==&amp;#34;) ; border-bottom: 1px solid transparent ; background-color: inherit&quot;&gt;operacji&lt;/span&gt;&lt;/span&gt;&lt;span class=&quot;TextRun SCXW259870011 BCX0&quot; lang=&quot;EN-GB&quot; style=&quot;margin: 0px ; padding: 0px ; font-size: 9pt ; text-align: left ; background-color: rgb(255 , 255 , 255) ; font-family: &amp;#34;segoe ui&amp;#34; , &amp;#34;segoe ui_embeddedfont&amp;#34; , &amp;#34;segoe ui_msfontservice&amp;#34; , sans-serif ; line-height: 24px&quot;&gt;&lt;span class=&quot;NormalTextRun SCXW259870011 BCX0&quot; style=&quot;margin: 0px ; padding: 0px ; background-color: inherit&quot;&gt;&amp;nbsp;&lt;br&gt;&lt;/span&gt;&lt;/span&gt;&lt;span class=&quot;TextRun SCXW259870011 BCX0&quot; lang=&quot;EN-GB&quot; style=&quot;margin: 0px ; padding: 0px ; font-size: 9pt ; text-align: left ; background-color: rgb(255 , 255 , 255) ; font-family: &amp;#34;segoe ui&amp;#34; , &amp;#34;segoe ui_embeddedfont&amp;#34; , &amp;#34;segoe ui_msfontservice&amp;#34; , sans-serif ; line-height: 24px&quot;&gt;&lt;span class=&quot;SpellingError SCXW259870011 BCX0&quot; style=&quot;margin: 0px ; padding: 0px ; background-repeat: repeat-x ; background-position: left bottom ; background-image: url(&amp;#34;data:image/gif;base64,R0lGODlhBQAEAJECAP////8AAAAAAAAAACH5BAEAAAIALAAAAAAFAAQAAAIIlGAXCCHrTCgAOw==&amp;#34;) ; border-bottom: 1px solid transparent ; background-color: inherit&quot;&gt;kwotę&lt;/span&gt;&lt;/span&gt;&lt;span class=&quot;TextRun SCXW259870011 BCX0&quot; lang=&quot;EN-GB&quot; style=&quot;margin: 0px ; padding: 0px ; font-size: 9pt ; text-align: left ; background-color: rgb(255 , 255 , 255) ; font-family: &amp;#34;segoe ui&amp;#34; , &amp;#34;segoe ui_embeddedfont&amp;#34; , &amp;#34;segoe ui_msfontservice&amp;#34; , sans-serif ; line-height: 24px&quot;&gt;&lt;span class=&quot;NormalTextRun SCXW259870011 BCX0&quot; style=&quot;margin: 0px ; padding: 0px ; background-color: inherit&quot;&gt;,&amp;nbsp;&lt;br&gt;&lt;/span&gt;&lt;/span&gt;&lt;span class=&quot;TextRun SCXW259870011 BCX0&quot; lang=&quot;EN-GB&quot; style=&quot;margin: 0px ; padding: 0px ; font-size: 9pt ; text-align: left ; background-color: rgb(255 , 255 , 255) ; font-family: &amp;#34;segoe ui&amp;#34; , &amp;#34;segoe ui_embeddedfont&amp;#34; , &amp;#34;segoe ui_msfontservice&amp;#34; , sans-serif ; line-height: 24px&quot;&gt;&lt;span class=&quot;SpellingError SCXW259870011 BCX0&quot; style=&quot;margin: 0px ; padding: 0px ; background-repeat: repeat-x ; background-position: left bottom ; background-image: url(&amp;#34;data:image/gif;base64,R0lGODlhBQAEAJECAP////8AAAAAAAAAACH5BAEAAAIALAAAAAAFAAQAAAIIlGAXCCHrTCgAOw==&amp;#34;) ; border-bottom: 1px solid transparent ; background-color: inherit&quot;&gt;kwota&lt;/span&gt;&lt;/span&gt;&lt;span class=&quot;TextRun SCXW259870011 BCX0&quot; lang=&quot;EN-GB&quot; style=&quot;margin: 0px ; padding: 0px ; font-size: 9pt ; text-align: left ; background-color: rgb(255 , 255 , 255) ; font-family: &amp;#34;segoe ui&amp;#34; , &amp;#34;segoe ui_embeddedfont&amp;#34; , &amp;#34;segoe ui_msfontservice&amp;#34; , sans-serif ; line-height: 24px&quot;&gt;&lt;span class=&quot;NormalTextRun SCXW259870011 BCX0&quot; style=&quot;margin: 0px ; padding: 0px ; background-color: inherit&quot;&gt;&amp;nbsp;w&amp;nbsp;&lt;/span&gt;&lt;/span&gt;&lt;span class=&quot;TextRun SCXW259870011 BCX0&quot; lang=&quot;EN-GB&quot; style=&quot;margin: 0px ; padding: 0px ; font-size: 9pt ; text-align: left ; background-color: rgb(255 , 255 , 255) ; font-family: &amp;#34;segoe ui&amp;#34; , &amp;#34;segoe ui_embeddedfont&amp;#34; , &amp;#34;segoe ui_msfontservice&amp;#34; , sans-serif ; line-height: 24px&quot;&gt;&lt;span class=&quot;SpellingError SCXW259870011 BCX0&quot; style=&quot;margin: 0px ; padding: 0px ; background-repeat: repeat-x ; background-position: left bottom ; background-image: url(&amp;#34;data:image/gif;base64,R0lGODlhBQAEAJECAP////8AAAAAAAAAACH5BAEAAAIALAAAAAAFAAQAAAIIlGAXCCHrTCgAOw==&amp;#34;) ; border-bottom: 1px solid transparent ; background-color: inherit&quot;&gt;walucie&lt;/span&gt;&lt;/span&gt;&lt;span class=&quot;TextRun SCXW259870011 BCX0&quot; lang=&quot;EN-GB&quot; style=&quot;margin: 0px ; padding: 0px ; font-size: 9pt ; text-align: left ; background-color: rgb(255 , 255 , 255) ; font-family: &amp;#34;segoe ui&amp;#34; , &amp;#34;segoe ui_embeddedfont&amp;#34; , &amp;#34;segoe ui_msfontservice&amp;#34; , sans-serif ; line-height: 24px&quot;&gt;&lt;span class=&quot;NormalTextRun SCXW259870011 BCX0&quot; style=&quot;margin: 0px ; padding: 0px ; background-color: inherit&quot;&gt;&amp;nbsp;&lt;/span&gt;&lt;/span&gt;&lt;span class=&quot;TextRun SCXW259870011 BCX0&quot; lang=&quot;EN-GB&quot; style=&quot;margin: 0px ; padding: 0px ; font-size: 9pt ; text-align: left ; background-color: rgb(255 , 255 , 255) ; font-family: &amp;#34;segoe ui&amp;#34; , &amp;#34;segoe ui_embeddedfont&amp;#34; , &amp;#34;segoe ui_msfontservice&amp;#34; , sans-serif ; line-height: 24px&quot;&gt;&lt;span class=&quot;SpellingError SCXW259870011 BCX0&quot; style=&quot;margin: 0px ; padding: 0px ; background-repeat: repeat-x ; background-position: left bottom ; background-image: url(&amp;#34;data:image/gif;base64,R0lGODlhBQAEAJECAP////8AAAAAAAAAACH5BAEAAAIALAAAAAAFAAQAAAIIlGAXCCHrTCgAOw==&amp;#34;) ; border-bottom: 1px solid transparent ; background-color: inherit&quot;&gt;źródłowej&lt;/span&gt;&lt;/span&gt;&lt;span class=&quot;TextRun SCXW259870011 BCX0&quot; lang=&quot;EN-GB&quot; style=&quot;margin: 0px ; padding: 0px ; font-size: 9pt ; text-align: left ; background-color: rgb(255 , 255 , 255) ; font-family: &amp;#34;segoe ui&amp;#34; , &amp;#34;segoe ui_embeddedfont&amp;#34; , &amp;#34;segoe ui_msfontservice&amp;#34; , sans-serif ; line-height: 24px&quot;&gt;&lt;span class=&quot;NormalTextRun SCXW259870011 BCX0&quot; style=&quot;margin: 0px ; padding: 0px ; background-color: inherit&quot;&gt;,&amp;nbsp;&lt;br&gt;&lt;/span&gt;&lt;/span&gt;&lt;span class=&quot;TextRun SCXW259870011 BCX0&quot; lang=&quot;EN-GB&quot; style=&quot;margin: 0px ; padding: 0px ; font-size: 9pt ; text-align: left ; background-color: rgb(255 , 255 , 255) ; font-family: &amp;#34;segoe ui&amp;#34; , &amp;#34;segoe ui_embeddedfont&amp;#34; , &amp;#34;segoe ui_msfontservice&amp;#34; , sans-serif ; line-height: 24px&quot;&gt;&lt;span class=&quot;SpellingError SCXW259870011 BCX0&quot; style=&quot;margin: 0px ; padding: 0px ; background-repeat: repeat-x ; background-position: left bottom ; background-image: url(&amp;#34;data:image/gif;base64,R0lGODlhBQAEAJECAP////8AAAAAAAAAACH5BAEAAAIALAAAAAAFAAQAAAIIlGAXCCHrTCgAOw==&amp;#34;) ; border-bottom: 1px solid transparent ; background-color: inherit&quot;&gt;kurs&lt;/span&gt;&lt;/span&gt;&lt;span class=&quot;TextRun SCXW259870011 BCX0&quot; lang=&quot;EN-GB&quot; style=&quot;margin: 0px ; padding: 0px ; font-size: 9pt ; text-align: left ; background-color: rgb(255 , 255 , 255) ; font-family: &amp;#34;segoe ui&amp;#34; , &amp;#34;segoe ui_embeddedfont&amp;#34; , &amp;#34;segoe ui_msfontservice&amp;#34; , sans-serif ; line-height: 24px&quot;&gt;&lt;span class=&quot;NormalTextRun SCXW259870011 BCX0&quot; style=&quot;margin: 0px ; padding: 0px ; background-color: inherit&quot;&gt;&amp;nbsp;&lt;/span&gt;&lt;/span&gt;&lt;span class=&quot;TextRun SCXW259870011 BCX0&quot; lang=&quot;EN-GB&quot; style=&quot;margin: 0px ; padding: 0px ; font-size: 9pt ; text-align: left ; background-color: rgb(255 , 255 , 255) ; font-family: &amp;#34;segoe ui&amp;#34; , &amp;#34;segoe ui_embeddedfont&amp;#34; , &amp;#34;segoe ui_msfontservice&amp;#34; , sans-serif ; line-height: 24px&quot;&gt;&lt;span class=&quot;SpellingError SCXW259870011 BCX0&quot; style=&quot;margin: 0px ; padding: 0px ; background-repeat: repeat-x ; background-position: left bottom ; background-image: url(&amp;#34;data:image/gif;base64,R0lGODlhBQAEAJECAP////8AAAAAAAAAACH5BAEAAAIALAAAAAAFAAQAAAIIlGAXCCHrTCgAOw==&amp;#34;) ; border-bottom: 1px solid transparent ; background-color: inherit&quot;&gt;wymiany&lt;/span&gt;&lt;/span&gt;&lt;span class=&quot;EOP SCXW259870011 BCX0&quot; style=&quot;margin: 0px ; padding: 0px ; font-size: 9pt ; text-align: left ; background-color: rgb(255 , 255 , 255) ; line-height: 24px ; font-family: &amp;#34;segoe ui&amp;#34; , &amp;#34;segoe ui_embeddedfont&amp;#34; , &amp;#34;segoe ui_msfontservice&amp;#34; , sans-serif&quot;&gt;&amp;nbsp;&lt;/span&gt;" style="shape=internalStorage;whiteSpace=wrap;html=1;backgroundOutline=1;dx=10;dy=10;" vertex="1" parent="1">
          <mxGeometry x="100" y="-10" width="180" height="190" as="geometry" />
        </mxCell>
        <mxCell id="gqDIxeXrWdBPDwV7vT4_-9" style="edgeStyle=orthogonalEdgeStyle;rounded=0;orthogonalLoop=1;jettySize=auto;html=1;exitX=0.25;exitY=0;exitDx=0;exitDy=0;entryX=0.25;entryY=1;entryDx=0;entryDy=0;" edge="1" parent="1" source="gqDIxeXrWdBPDwV7vT4_-3" target="gqDIxeXrWdBPDwV7vT4_-2">
          <mxGeometry relative="1" as="geometry" />
        </mxCell>
        <mxCell id="gqDIxeXrWdBPDwV7vT4_-3" value="&lt;b&gt;nabywcy&lt;/b&gt;&lt;br&gt;atrybuty:&lt;br&gt;&lt;span class=&quot;TextRun SCXW144964066 BCX0&quot; lang=&quot;EN-GB&quot; style=&quot;margin: 0px ; padding: 0px ; font-size: 9pt ; text-align: left ; background-color: rgb(255 , 255 , 255) ; font-family: &amp;#34;segoe ui&amp;#34; , &amp;#34;segoe ui_embeddedfont&amp;#34; , &amp;#34;segoe ui_msfontservice&amp;#34; , sans-serif ; line-height: 24px&quot;&gt;&lt;span class=&quot;SpellingError SCXW144964066 BCX0&quot; style=&quot;margin: 0px ; padding: 0px ; background-repeat: repeat-x ; background-position: left bottom ; background-image: url(&amp;#34;data:image/gif;base64,R0lGODlhBQAEAJECAP////8AAAAAAAAAACH5BAEAAAIALAAAAAAFAAQAAAIIlGAXCCHrTCgAOw==&amp;#34;) ; border-bottom: 1px solid transparent ; background-color: inherit&quot;&gt;nazwa&lt;/span&gt;&lt;/span&gt;&lt;span class=&quot;TextRun SCXW144964066 BCX0&quot; lang=&quot;EN-GB&quot; style=&quot;margin: 0px ; padding: 0px ; font-size: 9pt ; text-align: left ; background-color: rgb(255 , 255 , 255) ; font-family: &amp;#34;segoe ui&amp;#34; , &amp;#34;segoe ui_embeddedfont&amp;#34; , &amp;#34;segoe ui_msfontservice&amp;#34; , sans-serif ; line-height: 24px&quot;&gt;&lt;span class=&quot;NormalTextRun SCXW144964066 BCX0&quot; style=&quot;margin: 0px ; padding: 0px ; background-color: inherit&quot;&gt;,&amp;nbsp;&lt;br&gt;&lt;/span&gt;&lt;/span&gt;&lt;span class=&quot;TextRun SCXW144964066 BCX0&quot; lang=&quot;EN-GB&quot; style=&quot;margin: 0px ; padding: 0px ; font-size: 9pt ; text-align: left ; background-color: rgb(255 , 255 , 255) ; font-family: &amp;#34;segoe ui&amp;#34; , &amp;#34;segoe ui_embeddedfont&amp;#34; , &amp;#34;segoe ui_msfontservice&amp;#34; , sans-serif ; line-height: 24px&quot;&gt;&lt;span class=&quot;SpellingError SCXW144964066 BCX0&quot; style=&quot;margin: 0px ; padding: 0px ; background-repeat: repeat-x ; background-position: left bottom ; background-image: url(&amp;#34;data:image/gif;base64,R0lGODlhBQAEAJECAP////8AAAAAAAAAACH5BAEAAAIALAAAAAAFAAQAAAIIlGAXCCHrTCgAOw==&amp;#34;) ; border-bottom: 1px solid transparent ; background-color: inherit&quot;&gt;adres&lt;/span&gt;&lt;/span&gt;&lt;span class=&quot;TextRun SCXW144964066 BCX0&quot; lang=&quot;EN-GB&quot; style=&quot;margin: 0px ; padding: 0px ; font-size: 9pt ; text-align: left ; background-color: rgb(255 , 255 , 255) ; font-family: &amp;#34;segoe ui&amp;#34; , &amp;#34;segoe ui_embeddedfont&amp;#34; , &amp;#34;segoe ui_msfontservice&amp;#34; , sans-serif ; line-height: 24px&quot;&gt;&lt;span class=&quot;NormalTextRun SCXW144964066 BCX0&quot; style=&quot;margin: 0px ; padding: 0px ; background-color: inherit&quot;&gt;,&amp;nbsp;&lt;br&gt;&lt;/span&gt;&lt;/span&gt;&lt;span class=&quot;TextRun SCXW144964066 BCX0&quot; lang=&quot;EN-GB&quot; style=&quot;margin: 0px ; padding: 0px ; font-size: 9pt ; text-align: left ; background-color: rgb(255 , 255 , 255) ; font-family: &amp;#34;segoe ui&amp;#34; , &amp;#34;segoe ui_embeddedfont&amp;#34; , &amp;#34;segoe ui_msfontservice&amp;#34; , sans-serif ; line-height: 24px&quot;&gt;&lt;span class=&quot;SpellingError SCXW144964066 BCX0&quot; style=&quot;margin: 0px ; padding: 0px ; background-repeat: repeat-x ; background-position: left bottom ; background-image: url(&amp;#34;data:image/gif;base64,R0lGODlhBQAEAJECAP////8AAAAAAAAAACH5BAEAAAIALAAAAAAFAAQAAAIIlGAXCCHrTCgAOw==&amp;#34;) ; border-bottom: 1px solid transparent ; background-color: inherit&quot;&gt;numer&lt;/span&gt;&lt;/span&gt;&lt;span class=&quot;TextRun SCXW144964066 BCX0&quot; lang=&quot;EN-GB&quot; style=&quot;margin: 0px ; padding: 0px ; font-size: 9pt ; text-align: left ; background-color: rgb(255 , 255 , 255) ; font-family: &amp;#34;segoe ui&amp;#34; , &amp;#34;segoe ui_embeddedfont&amp;#34; , &amp;#34;segoe ui_msfontservice&amp;#34; , sans-serif ; line-height: 24px&quot;&gt;&lt;span class=&quot;NormalTextRun SCXW144964066 BCX0&quot; style=&quot;margin: 0px ; padding: 0px ; background-color: inherit&quot;&gt;&amp;nbsp;&lt;/span&gt;&lt;/span&gt;&lt;span class=&quot;TextRun SCXW144964066 BCX0&quot; lang=&quot;EN-GB&quot; style=&quot;margin: 0px ; padding: 0px ; font-size: 9pt ; text-align: left ; background-color: rgb(255 , 255 , 255) ; font-family: &amp;#34;segoe ui&amp;#34; , &amp;#34;segoe ui_embeddedfont&amp;#34; , &amp;#34;segoe ui_msfontservice&amp;#34; , sans-serif ; line-height: 24px&quot;&gt;&lt;span class=&quot;SpellingError SCXW144964066 BCX0&quot; style=&quot;margin: 0px ; padding: 0px ; background-repeat: repeat-x ; background-position: left bottom ; background-image: url(&amp;#34;data:image/gif;base64,R0lGODlhBQAEAJECAP////8AAAAAAAAAACH5BAEAAAIALAAAAAAFAAQAAAIIlGAXCCHrTCgAOw==&amp;#34;) ; border-bottom: 1px solid transparent ; background-color: inherit&quot;&gt;telefonu&lt;/span&gt;&lt;/span&gt;&lt;span class=&quot;TextRun SCXW144964066 BCX0&quot; lang=&quot;EN-GB&quot; style=&quot;margin: 0px ; padding: 0px ; font-size: 9pt ; text-align: left ; background-color: rgb(255 , 255 , 255) ; font-family: &amp;#34;segoe ui&amp;#34; , &amp;#34;segoe ui_embeddedfont&amp;#34; , &amp;#34;segoe ui_msfontservice&amp;#34; , sans-serif ; line-height: 24px&quot;&gt;&lt;span class=&quot;NormalTextRun SCXW144964066 BCX0&quot; style=&quot;margin: 0px ; padding: 0px ; background-color: inherit&quot;&gt;, e-mail&lt;/span&gt;&lt;/span&gt;" style="shape=internalStorage;whiteSpace=wrap;html=1;backgroundOutline=1;dx=10;dy=10;" vertex="1" parent="1">
          <mxGeometry x="100" y="230" width="80" height="190" as="geometry" />
        </mxCell>
        <mxCell id="gqDIxeXrWdBPDwV7vT4_-6" style="edgeStyle=orthogonalEdgeStyle;rounded=0;orthogonalLoop=1;jettySize=auto;html=1;exitX=0;exitY=0.25;exitDx=0;exitDy=0;entryX=1;entryY=0.5;entryDx=0;entryDy=0;" edge="1" parent="1" source="gqDIxeXrWdBPDwV7vT4_-4" target="gqDIxeXrWdBPDwV7vT4_-3">
          <mxGeometry relative="1" as="geometry" />
        </mxCell>
        <mxCell id="gqDIxeXrWdBPDwV7vT4_-4" value="lista krajów" style="shape=internalStorage;whiteSpace=wrap;html=1;backgroundOutline=1;dx=10;dy=10;" vertex="1" parent="1">
          <mxGeometry x="345" y="240" width="105" height="80" as="geometry" />
        </mxCell>
        <mxCell id="gqDIxeXrWdBPDwV7vT4_-7" style="edgeStyle=orthogonalEdgeStyle;rounded=0;orthogonalLoop=1;jettySize=auto;html=1;exitX=0;exitY=0.25;exitDx=0;exitDy=0;entryX=1;entryY=0.75;entryDx=0;entryDy=0;" edge="1" parent="1" source="gqDIxeXrWdBPDwV7vT4_-5" target="gqDIxeXrWdBPDwV7vT4_-3">
          <mxGeometry relative="1" as="geometry" />
        </mxCell>
        <mxCell id="gqDIxeXrWdBPDwV7vT4_-5" value="kraj pochodzenia" style="shape=internalStorage;whiteSpace=wrap;html=1;backgroundOutline=1;dx=10;dy=10;" vertex="1" parent="1">
          <mxGeometry x="360" y="370" width="120" height="110" as="geometry" />
        </mxCell>
      </root>
    </mxGraphModel>
  </diagram>
</mxfile>
